<mxfile host="app.diagrams.net" agent="Mozilla/5.0 (X11; Linux x86_64) AppleWebKit/537.36 (KHTML, like Gecko) Chrome/139.0.0.0 Safari/537.36" version="28.1.2">
  <diagram name="VLF_Racer_Control" id="VLF_Racer_Control">
    <mxGraphModel dx="768" dy="656" grid="1" gridSize="10" guides="1" tooltips="1" connect="1" arrows="1" fold="1" page="1" pageScale="1" pageWidth="1169" pageHeight="827" math="0" shadow="0">
      <root>
        <mxCell id="0" />
        <mxCell id="1" parent="0" />
        <mxCell id="2" value="VLF_Racer 제어 구조" style="text;html=1;strokeColor=none;fillColor=none;align=center;verticalAlign=middle;whiteSpace=wrap;rounded=0;fontSize=18;fontStyle=1;" parent="1" vertex="1">
          <mxGeometry x="250" y="60" width="300" height="30" as="geometry" />
        </mxCell>
        <mxCell id="3" value="Arduino Uno + FreeRTOS" style="rounded=1;whiteSpace=wrap;html=1;fillColor=#e3f2fd;strokeColor=#2196f3;" parent="1" vertex="1">
          <mxGeometry x="80" y="140" width="140" height="50" as="geometry" />
        </mxCell>
        <mxCell id="4" value="TSL1401 Camera&#xa;(128 pixels)" style="rounded=1;whiteSpace=wrap;html=1;fillColor=#e3f2fd;strokeColor=#2196f3;" parent="1" vertex="1">
          <mxGeometry x="80" y="240" width="140" height="60" as="geometry" />
        </mxCell>
        <mxCell id="5" value="DC Motor" style="rounded=1;whiteSpace=wrap;html=1;fillColor=#e3f2fd;strokeColor=#2196f3;" parent="1" vertex="1">
          <mxGeometry x="80" y="340" width="140" height="50" as="geometry" />
        </mxCell>
        <mxCell id="gEzEf5ORHEYz-hLb_jfu-43" value="" style="edgeStyle=orthogonalEdgeStyle;rounded=0;orthogonalLoop=1;jettySize=auto;html=1;" edge="1" parent="1" source="6" target="11">
          <mxGeometry relative="1" as="geometry" />
        </mxCell>
        <mxCell id="6" value="Encoder (Interrupt)" style="rounded=1;whiteSpace=wrap;html=1;fillColor=#ffcdd2;strokeColor=#f44336;" parent="1" vertex="1">
          <mxGeometry x="80" y="480" width="140" height="70" as="geometry" />
        </mxCell>
        <mxCell id="7" value="Servo Motor" style="rounded=1;whiteSpace=wrap;html=1;fillColor=#e3f2fd;strokeColor=#2196f3;" parent="1" vertex="1">
          <mxGeometry x="80" y="413.5" width="140" height="50" as="geometry" />
        </mxCell>
        <mxCell id="gEzEf5ORHEYz-hLb_jfu-47" style="edgeStyle=orthogonalEdgeStyle;rounded=0;orthogonalLoop=1;jettySize=auto;html=1;entryX=1;entryY=0.5;entryDx=0;entryDy=0;" edge="1" parent="1" source="8" target="4">
          <mxGeometry relative="1" as="geometry" />
        </mxCell>
        <mxCell id="gEzEf5ORHEYz-hLb_jfu-49" style="edgeStyle=orthogonalEdgeStyle;rounded=0;orthogonalLoop=1;jettySize=auto;html=1;exitX=0.5;exitY=1;exitDx=0;exitDy=0;entryX=0.5;entryY=0;entryDx=0;entryDy=0;" edge="1" parent="1" source="8" target="10">
          <mxGeometry relative="1" as="geometry" />
        </mxCell>
        <mxCell id="gEzEf5ORHEYz-hLb_jfu-50" style="edgeStyle=orthogonalEdgeStyle;rounded=0;orthogonalLoop=1;jettySize=auto;html=1;exitX=0.5;exitY=0;exitDx=0;exitDy=0;entryX=0.5;entryY=1;entryDx=0;entryDy=0;" edge="1" parent="1" source="8" target="9">
          <mxGeometry relative="1" as="geometry" />
        </mxCell>
        <mxCell id="8" value="TaskCamera (25Hz)&#xa;• Read TSL1401&#xa;• Line processing&#xa;• Calculate steering" style="rounded=1;whiteSpace=wrap;html=1;fillColor=#f3e5f5;strokeColor=#9c27b0;" parent="1" vertex="1">
          <mxGeometry x="300" y="232.5" width="180" height="75" as="geometry" />
        </mxCell>
        <mxCell id="9" value="TaskSerial (10Hz)&#xa;• Send pixel data&#xa;• Debug output" style="rounded=1;whiteSpace=wrap;html=1;fillColor=#f3e5f5;strokeColor=#9c27b0;" parent="1" vertex="1">
          <mxGeometry x="300" y="130" width="180" height="70" as="geometry" />
        </mxCell>
        <mxCell id="gEzEf5ORHEYz-hLb_jfu-44" value="" style="edgeStyle=orthogonalEdgeStyle;rounded=0;orthogonalLoop=1;jettySize=auto;html=1;entryX=1;entryY=0.5;entryDx=0;entryDy=0;" edge="1" parent="1" source="10" target="5">
          <mxGeometry relative="1" as="geometry" />
        </mxCell>
        <mxCell id="gEzEf5ORHEYz-hLb_jfu-45" style="edgeStyle=orthogonalEdgeStyle;rounded=0;orthogonalLoop=1;jettySize=auto;html=1;entryX=1;entryY=0.5;entryDx=0;entryDy=0;" edge="1" parent="1" source="10" target="7">
          <mxGeometry relative="1" as="geometry" />
        </mxCell>
        <mxCell id="10" value="TaskControl (50Hz)&#xa;• Mission logic&#xa;• Motor control&#xa;• Servo control" style="rounded=1;whiteSpace=wrap;html=1;fillColor=#f3e5f5;strokeColor=#9c27b0;" parent="1" vertex="1">
          <mxGeometry x="300" y="360" width="180" height="80" as="geometry" />
        </mxCell>
        <mxCell id="11" value="encoderB() ISR&#xa;• Count pulses&#xa;• Update encoderPos" style="rounded=1;whiteSpace=wrap;html=1;fillColor=#ffebee;strokeColor=#f44336;" parent="1" vertex="1">
          <mxGeometry x="300" y="480" width="180" height="70" as="geometry" />
        </mxCell>
        <mxCell id="gEzEf5ORHEYz-hLb_jfu-42" value="" style="edgeStyle=orthogonalEdgeStyle;rounded=0;orthogonalLoop=1;jettySize=auto;html=1;" edge="1" parent="1" source="12" target="13">
          <mxGeometry relative="1" as="geometry" />
        </mxCell>
        <mxCell id="gEzEf5ORHEYz-hLb_jfu-52" value="" style="edgeStyle=orthogonalEdgeStyle;rounded=0;orthogonalLoop=1;jettySize=auto;html=1;" edge="1" parent="1" source="12" target="9">
          <mxGeometry relative="1" as="geometry" />
        </mxCell>
        <mxCell id="gEzEf5ORHEYz-hLb_jfu-54" style="edgeStyle=orthogonalEdgeStyle;rounded=0;orthogonalLoop=1;jettySize=auto;html=1;entryX=1;entryY=0.5;entryDx=0;entryDy=0;" edge="1" parent="1" source="12" target="8">
          <mxGeometry relative="1" as="geometry" />
        </mxCell>
        <mxCell id="12" value="Pixel Data&#xa;• Pixel[128]&#xa;• PixelBuffer[128]&#xa;• threshold_data[128]" style="rounded=1;whiteSpace=wrap;html=1;fillColor=#e8f5e8;strokeColor=#4caf50;" parent="1" vertex="1">
          <mxGeometry x="540" y="120" width="150" height="90" as="geometry" />
        </mxCell>
        <mxCell id="13" value="Control Data&#xa;• vision_steer_angle&#xa;• steering_angle&#xa;• mission_flag" style="rounded=1;whiteSpace=wrap;html=1;fillColor=#e8f5e8;strokeColor=#4caf50;" parent="1" vertex="1">
          <mxGeometry x="540" y="360" width="150" height="80" as="geometry" />
        </mxCell>
        <mxCell id="gEzEf5ORHEYz-hLb_jfu-46" value="" style="edgeStyle=orthogonalEdgeStyle;rounded=0;orthogonalLoop=1;jettySize=auto;html=1;" edge="1" parent="1" source="14" target="11">
          <mxGeometry relative="1" as="geometry" />
        </mxCell>
        <mxCell id="14" value="Encoder Data&#xa;• encoderPos&#xa;• Speed info&#xa;• Position info" style="rounded=1;whiteSpace=wrap;html=1;fillColor=#e8f5e8;strokeColor=#4caf50;" parent="1" vertex="1">
          <mxGeometry x="540" y="478.25" width="150" height="73.5" as="geometry" />
        </mxCell>
        <mxCell id="15" value="Mission System&#xa;0: start_stop&#xa;1: lane_control&#xa;2: wall_following&#xa;3: turn90&#xa;4-6: custom" style="rounded=1;whiteSpace=wrap;html=1;fillColor=#fff8e1;strokeColor=#ffc107;" parent="1" vertex="1">
          <mxGeometry x="730" y="350" width="150" height="100" as="geometry" />
        </mxCell>
        <mxCell id="16" value="Watchdog Timer&#xa;(2s timeout)" style="rounded=1;whiteSpace=wrap;html=1;fillColor=#fff3e0;strokeColor=#ff9800;" parent="1" vertex="1">
          <mxGeometry x="750" y="130" width="140" height="60" as="geometry" />
        </mxCell>
        <mxCell id="17" value="Semaphores&#xa;• xSerialSemaphore&#xa;• xDataSemaphore&#xa;• xSteeringSemaphore" style="rounded=1;whiteSpace=wrap;html=1;fillColor=#fff3e0;strokeColor=#ff9800;" parent="1" vertex="1">
          <mxGeometry x="750" y="210" width="140" height="80" as="geometry" />
        </mxCell>
        <mxCell id="34" value="범례" style="text;html=1;strokeColor=none;fillColor=none;align=left;verticalAlign=top;whiteSpace=wrap;rounded=0;fontSize=12;fontStyle=1;" parent="1" vertex="1">
          <mxGeometry x="80" y="580" width="60" height="20" as="geometry" />
        </mxCell>
        <mxCell id="35" value="하드웨어" style="rounded=1;whiteSpace=wrap;html=1;fillColor=#e3f2fd;strokeColor=#2196f3;fontSize=10;" parent="1" vertex="1">
          <mxGeometry x="80" y="610" width="80" height="25" as="geometry" />
        </mxCell>
        <mxCell id="36" value="인터럽트 HW" style="rounded=1;whiteSpace=wrap;html=1;fillColor=#ffcdd2;strokeColor=#f44336;fontSize=10;" parent="1" vertex="1">
          <mxGeometry x="180" y="610" width="80" height="25" as="geometry" />
        </mxCell>
        <mxCell id="37" value="태스크" style="rounded=1;whiteSpace=wrap;html=1;fillColor=#f3e5f5;strokeColor=#9c27b0;fontSize=10;" parent="1" vertex="1">
          <mxGeometry x="280" y="610" width="80" height="25" as="geometry" />
        </mxCell>
        <mxCell id="38" value="ISR" style="rounded=1;whiteSpace=wrap;html=1;fillColor=#ffebee;strokeColor=#f44336;fontSize=10;" parent="1" vertex="1">
          <mxGeometry x="380" y="610" width="80" height="25" as="geometry" />
        </mxCell>
        <mxCell id="39" value="데이터" style="rounded=1;whiteSpace=wrap;html=1;fillColor=#e8f5e8;strokeColor=#4caf50;fontSize=10;" parent="1" vertex="1">
          <mxGeometry x="480" y="610" width="80" height="25" as="geometry" />
        </mxCell>
        <mxCell id="40" value="안전시스템" style="rounded=1;whiteSpace=wrap;html=1;fillColor=#fff3e0;strokeColor=#ff9800;fontSize=10;" parent="1" vertex="1">
          <mxGeometry x="580" y="610" width="80" height="25" as="geometry" />
        </mxCell>
        <mxCell id="41" value="미션시스템" style="rounded=1;whiteSpace=wrap;html=1;fillColor=#fff8e1;strokeColor=#ffc107;fontSize=10;" parent="1" vertex="1">
          <mxGeometry x="680" y="610" width="80" height="25" as="geometry" />
        </mxCell>
      </root>
    </mxGraphModel>
  </diagram>
</mxfile>
